<svg xmlns="http://www.w3.org/2000/svg" viewBox="0 0 100 125"><path d="M84.5 77.6c0 4.7-1.2 8.4-3.5 11.1-2.3 2.7-5.4 4.1-9.3 4.1H30c-3.8 0-6.9-1.4-9.3-4.1-2.3-2.7-3.5-6.4-3.5-11.1 0-2.1.1-4.1.2-6.1s.3-4.1.7-6.4c.3-2.3.8-4.4 1.3-6.4s1.2-3.9 2.1-5.7c.9-1.9 1.8-3.4 3-4.8 1.1-1.3 2.5-2.4 4.1-3.1 1.6-.8 3.3-1.2 5.3-1.2h1c-4.1-4.3-6.2-9.4-6.2-15.4 0-6.2 2.2-11.5 6.6-15.8 4.4-4.4 9.7-6.6 15.8-6.6 6.2 0 11.5 2.2 15.8 6.6 4.4 4.4 6.6 9.7 6.6 15.8 0 6-2.1 11.1-6.2 15.4h1c1.9 0 3.7.4 5.2 1.2 1.6.8 3 1.8 4.1 3.1 1.1 1.3 2.1 2.9 3 4.8.9 1.9 1.5 3.8 2.1 5.7.5 2 .9 4.1 1.3 6.4.3 2.3.6 4.4.7 6.4-.3 2-.2 4.1-.2 6.1zM71.6 58c0-.7-.3-1.4-.8-1.9L67 52.3c-.5-.5-1.2-.8-1.9-.8s-1.4.3-1.9.8L44.7 70.7l-8.3-8.3c-.5-.5-1.2-.8-1.9-.8s-1.4.3-1.9.8l-3.8 3.8c-.5.5-.8 1.2-.8 1.9s.3 1.4.8 1.9L39 80.2l3.8 3.8c.5.5 1.2.8 1.9.8s1.4-.3 1.9-.8l3.8-3.8 20.3-20.3c.6-.5.9-1.2.9-1.9z"/><text y="115" font-size="5" font-weight="bold" font-family="'Helvetica Neue', Helvetica, Arial-Unicode, Arial, Sans-serif">Created by Nizaj Salim</text><text y="120" font-size="5" font-weight="bold" font-family="'Helvetica Neue', Helvetica, Arial-Unicode, Arial, Sans-serif">from the Noun Project</text></svg>