<svg xmlns="http://www.w3.org/2000/svg" width="512" height="512" viewBox="0 0 512 512"><path d="M147.021 67.833c0-2.813-2.313-5.125-5.125-5.125H80.479c-2.813 0-5.125 2.313-5.125 5.125v25.063h71.667V67.833zM294.771 207.792c-40.563 0-73.563 33-73.563 73.542 0 40.563 33 73.563 73.563 73.563 40.542 0 73.542-33 73.542-73.563 0-40.542-33-73.542-73.542-73.542z"/><path d="M471.042 113.375H409.25V83.188c0-11.271-9.208-20.479-20.458-20.479H199.771c-11.271 0-20.479 9.208-20.479 20.479v30.188H40.958C18.417 113.375 0 131.813 0 154.313v254.042c0 22.521 18.417 40.938 40.958 40.938h430.083c22.542 0 40.958-18.417 40.958-40.938V154.313c.001-22.5-18.416-40.938-40.957-40.938zM100.229 216.75c-14.125 0-25.583-11.458-25.583-25.583s11.458-25.604 25.583-25.604c14.146 0 25.604 11.479 25.604 25.604s-11.458 25.583-25.604 25.583zm194.542 179.083c-63.229 0-114.521-51.271-114.521-114.5s51.292-114.5 114.521-114.5 114.479 51.271 114.479 114.5c0 63.23-51.25 114.5-114.479 114.5z"/></svg>