<svg xmlns="http://www.w3.org/2000/svg" width="24" height="24" viewBox="0 0 24 24"><path d="M3.304.875C1.751.901.464 2.184.491 3.736.518 5.29 1.751 6.527 3.304 6.5c1.554-.026 2.841-1.308 2.813-2.861C6.09 2.086 4.858.848 3.304.875zm1.479 3.176H3.682v1.154h-.754V4.051H1.826v-.736h1.102V2.171h.754v1.145h1.101v.735zM4.563 9.667c-.109 0-.153.029-.162.036-.086.228.078 1.254.487 1.944.06.104.173.168.213.168a.37.37 0 0 1 .338.228c.199.514.436.857.707 1.255.076.108.151.219.229.336.248.377.49.636.761.807a.336.336 0 0 1 .158.292c-.021.688-.169 2.317-1.101 2.576l-.377.104C2.35 18.344.5 19.154.313 19.822.047 20.779 0 21.398 0 21.405c.001.506.465.935 1.035.935h15.81c.571 0 1.035-.429 1.035-.958 0-.287-.042-.526-.328-1.562-.236-.863-2.328-1.46-4.01-1.938-.694-.197-1.349-.383-1.883-.583-.863-.326-1.005-1.769-1.01-2.601 0-.108.052-.209.145-.274.226-.162.451-.415.687-.773.081-.122.161-.238.239-.353.262-.382.512-.741.715-1.251a.366.366 0 0 1 .296-.22.388.388 0 0 0 .214-.17c.405-.689.57-1.714.483-1.942a.302.302 0 0 0-.13-.023.394.394 0 0 1-.261-.105.34.34 0 0 1-.101-.249c.088-2.169-.829-3.77-2.514-4.387a13.306 13.306 0 0 0-1.756-.571 2.221 2.221 0 0 1-.81-.38.79.79 0 0 0-.115.255c-.014.063-.005.095 0 .1a.318.318 0 0 1 .006.38.375.375 0 0 1-.334.156h-.038c-.075 0-.586.007-.894.212.008.012.017.024.023.04.067.137.029.3-.095.398-.713.577-1.547 1.7-1.465 3.796a.298.298 0 0 1-.103.241.395.395 0 0 1-.275.089h-.003z"/><path d="M23.744 20.375c-.185-.673-1.815-1.138-3.126-1.511a20.208 20.208 0 0 1-1.469-.455c-.673-.254-.783-1.379-.787-2.027 0-.084.041-.163.113-.214.176-.126.352-.323.535-.603.063-.096.125-.187.187-.275.204-.298.398-.578.557-.976a.286.286 0 0 1 .231-.171.302.302 0 0 0 .166-.133c.316-.537.445-1.336.377-1.514-.003-.004-.036-.017-.101-.019a.308.308 0 0 1-.204-.082.27.27 0 0 1-.078-.194c.068-1.691-.646-2.939-1.96-3.42a10.59 10.59 0 0 0-1.369-.445 1.728 1.728 0 0 1-.632-.296.63.63 0 0 0-.09.198c-.011.05-.004.074 0 .078a.249.249 0 0 1 .005.296.29.29 0 0 1-.261.122h-.028c-.059 0-.457.005-.696.165.006.01.013.02.018.031a.253.253 0 0 1-.073.311 2.936 2.936 0 0 0-.857 1.174 5.252 5.252 0 0 1-.241.929 4.84 4.84 0 0 0-.044.857.233.233 0 0 1-.081.188.31.31 0 0 1-.214.069h-.003c-.085 0-.119.023-.126.028-.067.178.061.978.38 1.517.047.081.135.131.166.131a.287.287 0 0 1 .264.177c.155.4.339.669.551.979.06.085.118.171.179.262.193.294.383.496.594.629a.266.266 0 0 1 .123.228c-.009.295-.052.809-.206 1.248 1.512.512 2.539 1.064 2.782 1.953.293 1.061.356 1.375.356 1.772 0 .354-.111.682-.3.958h4.813c.445 0 .808-.334.808-.747-.003-.224-.036-.41-.259-1.218z"/><path d="M14.2 10.416a3.776 3.776 0 0 0-.241.929c.108-.303.193-.624.241-.929z"/></svg>