<svg xmlns="http://www.w3.org/2000/svg" xmlns:xlink="http://www.w3.org/1999/xlink" version="1.1" x="0px" y="0px" viewBox="0 0 100 125" enable-background="new 0 0 100 100" xml:space="preserve"><path d="M84.5,77.6c0,4.7-1.2,8.4-3.5,11.1c-2.3,2.7-5.4,4.1-9.3,4.1H30c-3.8,0-6.9-1.4-9.3-4.1c-2.3-2.7-3.5-6.4-3.5-11.1  c0-2.1,0.1-4.1,0.2-6.1c0.1-2,0.3-4.1,0.7-6.4c0.3-2.3,0.8-4.4,1.3-6.4c0.5-2,1.2-3.9,2.1-5.7c0.9-1.9,1.8-3.4,3-4.8  c1.1-1.3,2.5-2.4,4.1-3.1c1.6-0.8,3.3-1.2,5.3-1.2l0,0h0.1c0,0,0,0,0,0c0,0,0,0,0,0l0.9,0c-4.1-4.3-6.2-9.4-6.2-15.4  c0-6.2,2.2-11.5,6.6-15.8c4.4-4.4,9.7-6.6,15.8-6.6c6.2,0,11.5,2.2,15.8,6.6c4.4,4.4,6.6,9.7,6.6,15.8c0,6-2.1,11.1-6.2,15.4l0.9,0  c0,0,0,0,0,0c0,0,0,0,0.1,0h0l0,0c1.9,0,3.7,0.4,5.2,1.2c1.6,0.8,3,1.8,4.1,3.1c1.1,1.3,2.1,2.9,3,4.8c0.9,1.9,1.5,3.8,2.1,5.7  c0.5,2,0.9,4.1,1.3,6.4c0.3,2.3,0.6,4.4,0.7,6.4C84.4,73.5,84.5,75.6,84.5,77.6z M71.6,58c0-0.7-0.3-1.4-0.8-1.9L67,52.3  c-0.5-0.5-1.2-0.8-1.9-0.8c-0.7,0-1.4,0.3-1.9,0.8L44.7,70.7l-8.3-8.3c-0.5-0.5-1.2-0.8-1.9-0.8c-0.7,0-1.4,0.3-1.9,0.8l-3.8,3.8  c-0.5,0.5-0.8,1.2-0.8,1.9c0,0.7,0.3,1.4,0.8,1.9L39,80.2l3.8,3.8c0.5,0.5,1.2,0.8,1.9,0.8c0.7,0,1.4-0.3,1.9-0.8l3.8-3.8l20.3-20.3  C71.3,59.4,71.6,58.7,71.6,58z"/><text x="0" y="115" fill="#000000" font-size="5px" font-weight="bold" font-family="'Helvetica Neue', Helvetica, Arial-Unicode, Arial, Sans-serif">Created by Nizaj Salim</text><text x="0" y="120" fill="#000000" font-size="5px" font-weight="bold" font-family="'Helvetica Neue', Helvetica, Arial-Unicode, Arial, Sans-serif">from the Noun Project</text></svg>