<?xml version="1.0" encoding="utf-8"?>
<!-- Generator: Adobe Illustrator 16.0.0, SVG Export Plug-In . SVG Version: 6.00 Build 0)  -->
<!DOCTYPE svg PUBLIC "-//W3C//DTD SVG 1.1//EN" "http://www.w3.org/Graphics/SVG/1.1/DTD/svg11.dtd">
<svg version="1.1" id="Layer_1" xmlns="http://www.w3.org/2000/svg" xmlns:xlink="http://www.w3.org/1999/xlink" x="0px" y="0px"
	 width="24px" height="24px" viewBox="0 0 24 24" enable-background="new 0 0 24 24" xml:space="preserve">
<path d="M2.4,4.801H0v16.801C0,22.92,1.08,24,2.4,24h16.799v-2.398H2.4V4.801z M21.6,0h-14.4C5.88,0,4.801,1.08,4.801,2.398v14.402
	c0,1.318,1.08,2.398,2.398,2.398h14.4c1.32,0,2.4-1.08,2.4-2.398V2.398C24,1.08,22.92,0,21.6,0z M20.4,10.801H15.6v4.801h-2.4
	v-4.801H8.4V8.398h4.799V3.602h2.4v4.797H20.4V10.801z"/>
</svg>
