<?xml version="1.0" encoding="utf-8"?>
<!-- Generator: Adobe Illustrator 16.0.0, SVG Export Plug-In . SVG Version: 6.00 Build 0)  -->
<!DOCTYPE svg PUBLIC "-//W3C//DTD SVG 1.1//EN" "http://www.w3.org/Graphics/SVG/1.1/DTD/svg11.dtd">
<svg version="1.1" id="Layer_1" xmlns="http://www.w3.org/2000/svg" xmlns:xlink="http://www.w3.org/1999/xlink" x="0px" y="0px"
	 width="512px" height="512px" viewBox="0 0 512 512" enable-background="new 0 0 512 512" xml:space="preserve">
<g>
	<path d="M147.021,67.833c0-2.813-2.313-5.125-5.125-5.125H80.479c-2.813,0-5.125,2.313-5.125,5.125v25.063h71.667V67.833z"/>
	<path d="M294.771,207.792c-40.563,0-73.563,33-73.563,73.542c0,40.563,33,73.563,73.563,73.563c40.542,0,73.542-33,73.542-73.563
		C368.313,240.792,335.313,207.792,294.771,207.792z"/>
	<path d="M471.042,113.375H409.25V83.188c0-11.271-9.208-20.479-20.458-20.479H199.771c-11.271,0-20.479,9.208-20.479,20.479v30.188
		H40.958C18.417,113.375,0,131.813,0,154.313v254.042c0,22.521,18.417,40.938,40.958,40.938h430.083
		c22.542,0,40.958-18.417,40.958-40.938V154.313C512,131.813,493.583,113.375,471.042,113.375z M100.229,216.75
		c-14.125,0-25.583-11.458-25.583-25.583s11.458-25.604,25.583-25.604c14.146,0,25.604,11.479,25.604,25.604
		S114.375,216.75,100.229,216.75z M294.771,395.833c-63.229,0-114.521-51.271-114.521-114.5c0-63.229,51.292-114.5,114.521-114.5
		c63.229,0,114.479,51.271,114.479,114.5C409.25,344.563,358,395.833,294.771,395.833z"/>
</g>
</svg>
