<?xml version="1.0" encoding="utf-8"?>
<!-- Generator: Adobe Illustrator 16.0.0, SVG Export Plug-In . SVG Version: 6.00 Build 0)  -->
<!DOCTYPE svg PUBLIC "-//W3C//DTD SVG 1.1//EN" "http://www.w3.org/Graphics/SVG/1.1/DTD/svg11.dtd">
<svg version="1.1" id="Layer_1" xmlns="http://www.w3.org/2000/svg" xmlns:xlink="http://www.w3.org/1999/xlink" x="0px" y="0px"
	 width="24px" height="24px" viewBox="0 0 24 24" enable-background="new 0 0 24 24" xml:space="preserve">
<g>
	<path d="M3.304,0.875c-1.553,0.026-2.84,1.309-2.813,2.861C0.518,5.29,1.751,6.527,3.304,6.5c1.554-0.026,2.841-1.308,2.813-2.861
		C6.09,2.086,4.858,0.848,3.304,0.875z M4.783,4.051H3.682v1.154H2.928V4.051H1.826V3.315h1.102V2.171h0.754v1.145h1.101V4.051z"/>
	<g>
		<path d="M4.563,9.667c-0.109,0-0.153,0.029-0.162,0.036c-0.086,0.228,0.078,1.254,0.487,1.944c0.06,0.104,0.173,0.168,0.213,0.168
			c0.152,0.004,0.287,0.095,0.338,0.228c0.199,0.514,0.436,0.857,0.707,1.255c0.076,0.108,0.151,0.219,0.229,0.336
			c0.248,0.377,0.49,0.636,0.761,0.807c0.102,0.065,0.161,0.175,0.158,0.292c-0.021,0.688-0.169,2.317-1.101,2.576l-0.377,0.104
			c-3.466,0.931-5.316,1.741-5.503,2.409C0.047,20.779,0,21.398,0,21.405c0.001,0.506,0.465,0.935,1.035,0.935h15.81
			c0.571,0,1.035-0.429,1.035-0.958c0-0.287-0.042-0.526-0.328-1.562c-0.236-0.863-2.328-1.46-4.01-1.938
			c-0.694-0.197-1.349-0.383-1.883-0.583c-0.863-0.326-1.005-1.769-1.01-2.601c0-0.108,0.052-0.209,0.145-0.274
			c0.226-0.162,0.451-0.415,0.687-0.773c0.081-0.122,0.161-0.238,0.239-0.353c0.262-0.382,0.512-0.741,0.715-1.251
			c0.047-0.118,0.161-0.202,0.296-0.22c0.044-0.008,0.153-0.067,0.214-0.17c0.405-0.689,0.57-1.714,0.483-1.942
			c-0.004-0.004-0.047-0.021-0.13-0.023c-0.097-0.002-0.193-0.04-0.261-0.105c-0.067-0.067-0.103-0.156-0.101-0.249
			c0.088-2.169-0.829-3.77-2.514-4.387C10.06,4.802,9.474,4.587,8.666,4.38C8.393,4.311,8.082,4.181,7.856,4
			C7.805,4.077,7.76,4.168,7.741,4.255c-0.014,0.063-0.005,0.095,0,0.1c0.085,0.114,0.089,0.262,0.006,0.38
			C7.674,4.84,7.549,4.899,7.413,4.891H7.375c-0.075,0-0.586,0.007-0.894,0.212c0.008,0.012,0.017,0.024,0.023,0.04
			c0.067,0.137,0.029,0.3-0.095,0.398c-0.713,0.577-1.547,1.7-1.465,3.796C4.95,9.43,4.912,9.511,4.841,9.578
			C4.768,9.646,4.666,9.667,4.566,9.667C4.566,9.667,4.564,9.667,4.563,9.667z"/>
		
			<path fill="none" stroke="#000000" stroke-width="0.7457" stroke-linecap="round" stroke-linejoin="round" stroke-miterlimit="10" d="
			M11.062,13.17"/>
		<path d="M23.744,20.375c-0.185-0.673-1.815-1.138-3.126-1.511c-0.542-0.154-1.052-0.299-1.469-0.455
			c-0.673-0.254-0.783-1.379-0.787-2.027c0-0.084,0.041-0.163,0.113-0.214c0.176-0.126,0.352-0.323,0.535-0.603
			c0.063-0.096,0.125-0.187,0.187-0.275c0.204-0.298,0.398-0.578,0.557-0.976c0.037-0.092,0.126-0.157,0.231-0.171
			c0.034-0.006,0.119-0.053,0.166-0.133c0.316-0.537,0.445-1.336,0.377-1.514c-0.003-0.004-0.036-0.017-0.101-0.019
			c-0.076-0.002-0.151-0.031-0.204-0.082c-0.052-0.053-0.079-0.122-0.078-0.194c0.068-1.691-0.646-2.939-1.96-3.42
			c-0.283-0.116-0.74-0.283-1.369-0.445c-0.214-0.054-0.456-0.155-0.632-0.296c-0.04,0.061-0.075,0.131-0.09,0.198
			c-0.011,0.05-0.004,0.074,0,0.078c0.066,0.089,0.069,0.204,0.005,0.296c-0.057,0.082-0.154,0.129-0.261,0.122H15.81
			c-0.059,0-0.457,0.005-0.696,0.165c0.006,0.01,0.013,0.02,0.018,0.031c0.053,0.106,0.023,0.234-0.073,0.311
			c-0.303,0.245-0.629,0.623-0.857,1.174c-0.048,0.305-0.133,0.626-0.241,0.929c-0.035,0.262-0.057,0.541-0.044,0.857
			c0.004,0.072-0.025,0.136-0.081,0.188c-0.058,0.053-0.137,0.069-0.214,0.069c0,0-0.002,0-0.003,0
			c-0.085,0-0.119,0.023-0.126,0.028c-0.067,0.178,0.061,0.978,0.38,1.517c0.047,0.081,0.135,0.131,0.166,0.131
			c0.119,0.003,0.224,0.073,0.264,0.177c0.155,0.4,0.339,0.669,0.551,0.979c0.06,0.085,0.118,0.171,0.179,0.262
			c0.193,0.294,0.383,0.496,0.594,0.629c0.079,0.052,0.125,0.137,0.123,0.228c-0.009,0.295-0.052,0.809-0.206,1.248
			c1.512,0.512,2.539,1.064,2.782,1.953c0.293,1.061,0.356,1.375,0.356,1.772c0,0.354-0.111,0.682-0.3,0.958h4.813
			c0.445,0,0.808-0.334,0.808-0.747C24,21.369,23.967,21.183,23.744,20.375z"/>
		<path d="M14.2,10.416c-0.109,0.266-0.193,0.574-0.241,0.929C14.067,11.042,14.152,10.721,14.2,10.416z"/>
	</g>
</g>
</svg>
